<svg width="24" height="26" viewBox="0 0 24 26" fill="none" xmlns="http://www.w3.org/2000/svg">
<path d="M23.5312 8.5L12.5625 1.1875C12.1875 0.9375 11.8125 0.9375 11.4375 1.1875L0.46875 8.5C0.15625 8.6875 0 8.96875 0 9.34375V16.6562C0 17.0312 0.15625 17.3125 0.46875 17.5L11.4375 24.8125C11.8125 25.0625 12.1875 25.0625 12.5625 24.8125L23.5312 17.5C23.8438 17.3125 24 17.0312 24 16.6562V9.34375C24 8.96875 23.8438 8.6875 23.5312 8.5ZM13.0312 3.95312L21.0938 9.34375L17.4844 11.7344L13.0312 8.78125V3.95312ZM10.9688 3.95312V8.78125L6.51562 11.7344L2.90625 9.34375L10.9688 3.95312ZM2.0625 11.2656L4.64062 13L2.0625 14.7344V11.2656ZM10.9688 22.0469L2.90625 16.6562L6.51562 14.2656L10.9688 17.2188V22.0469ZM12 15.4375L8.34375 13L12 10.5625L15.6562 13L12 15.4375ZM13.0312 22.0469V17.2188L17.4844 14.2656L21.0938 16.6562L13.0312 22.0469ZM21.9375 14.7344L19.3594 13L21.9375 11.2656V14.7344Z" fill="#B2B2B2"/>
</svg>
